<?xml version="1.0" standalone="no"?>
<!DOCTYPE svg PUBLIC "-//W3C//DTD SVG 20010904//EN"
 "http://www.w3.org/TR/2001/REC-SVG-20010904/DTD/svg10.dtd">
<svg version="1.0" xmlns="http://www.w3.org/2000/svg"
 width="590.000000pt" height="331.000000pt" viewBox="0 0 590.000000 331.000000"
 preserveAspectRatio="xMidYMid meet">

<g transform="translate(0.000000,331.000000) scale(0.100000,-0.100000)"
fill="#000000" stroke="none">
<path d="M1654 1396 c-3 -14 -11 -26 -18 -26 -6 0 -3 -5 7 -11 19 -11 17 -69
-4 -95 -7 -9 -8 -14 -1 -14 6 0 12 -10 14 -22 3 -20 33 -34 42 -19 3 4 6 52 7
107 2 94 1 99 -19 102 -16 2 -23 -3 -28 -22z"/>
<path d="M1098 1343 c-10 -2 -18 -9 -18 -14 0 -5 112 -9 272 -9 206 0 269 3
260 12 -11 11 -474 21 -514 11z"/>
<path d="M1493 1263 c9 -2 25 -2 35 0 9 3 1 5 -18 5 -19 0 -27 -2 -17 -5z"/>
</g>
</svg>
